<?xml version="1.0" encoding="utf-8"?>
<!-- Generator: Adobe Illustrator 25.3.1, SVG Export Plug-In . SVG Version: 6.00 Build 0)  -->
<svg version="1.1" xmlns="http://www.w3.org/2000/svg" xmlns:xlink="http://www.w3.org/1999/xlink" x="0px" y="0px"
	 viewBox="0 0 407.7 353.4" style="enable-background:new 0 0 407.7 353.4;" xml:space="preserve">
<style type="text/css">
	.st0{fill:none;}
	.st1{fill:#E3F8FF;}
	.st2{fill:#FFF4D4;}
	.st3{fill:#D9FCF3;}
	.st4{fill:#010101;}
	.st5{fill:#D38254;}
	.st6{fill:#FFCF34;}
	.st7{fill:#396BB2;}
	.st8{fill:#244370;}
	.st9{fill:#F2B22A;}
	.st10{fill:#29497C;}
	.st11{fill:#E29867;}
	.st12{fill:#DB804D;}
	.st13{fill:#CA4F24;}
	.st14{fill:#BEF0FC;}
	.st15{fill:#FFFFFF;}
	.st16{fill:#53EECE;}
	.st17{fill:#36CCB1;}
</style>
<g id="OBJECTS">
	<g>
		<path class="st0" d="M181.9,263.6c-3.3-0.1-6.4-0.3-9.4-0.4l2.5,14.2L181.9,263.6z"/>
		<path class="st0" d="M348.5,263.8v9.6C349.5,269.6,349.4,266.5,348.5,263.8z"/>
		<polygon class="st0" points="132,264.1 125.3,264.1 128.7,283 		"/>
		<path class="st0" d="M150.2,191.5h2.1c-0.7-0.1-1.3-0.3-2-0.6C150.3,191.1,150.3,191.3,150.2,191.5z"/>
		<path class="st0" d="M168.1,191.5h1.3c-0.2,0-0.4,0-0.5-0.1C168.5,191.5,168.3,191.5,168.1,191.5z"/>
		<polygon class="st1" points="75.6,281.3 77.9,301.7 81.1,283.8 		"/>
		<polygon class="st1" points="102.6,293.7 83.4,284.9 79,309.7 		"/>
		<polygon class="st2" points="344.6,279 337.1,277.2 341.8,296.4 344.6,296.4 		"/>
		<path class="st2" d="M348.5,296.4h1c-0.3-0.7-0.6-1.4-1-2.2V296.4z"/>
		<path class="st3" d="M239.1,264.9l71.5,55.7L323.8,208l-92,35.1c2.1,2.9,3.8,6,5,9.6C238.1,255,238.8,259.4,239.1,264.9z"/>
		<polygon class="st2" points="263,51.3 194.3,11.3 195.7,88 		"/>
		<polygon class="st3" points="33.3,92.1 0,110.6 31.9,128.8 		"/>
		<polygon class="st1" points="374.4,110.6 406.3,128.8 407.7,92.1 		"/>
		<polygon class="st1" points="341.4,28.3 333.8,35.9 343.9,38.4 		"/>
		<polygon class="st3" points="170.2,-0.1 162.6,7.5 172.6,9.9 		"/>
		<polygon class="st2" points="72.6,36.1 54.7,31.7 59.1,49.6 		"/>
		<polygon class="st1" points="88.9,15 86.5,25 96.5,22.6 		"/>
		<path class="st4" d="M77.5,128.1c0,0.2,0,0.3,0,0.3C77.5,128.2,77.5,128.2,77.5,128.1z"/>
		<path class="st4" d="M112.5,122.7c0.6-0.6,1.2-1.1,1.8-1.5c7.4-3.2,15.9,4.7,21.4,13.1v0c2.7-7.7,1.2-12.7-1.5-17.6
			c-1.1-2-2.3-4-3.6-6.1c-1.2-2.1-2.3-4.3-3.2-6.8c-1.4-3.8-1.7-7-1.4-9.4c0.2-2,0.7-3.6,1.3-4.8c4.1-1.2,8.8-4.3,12-11.6
			c-1.4,6.9-7.6,11.4-7.6,11.4s7.8-0.9,12.5-9.9c1.5,6.3-3.6,10-3.6,10s12.8,1.4,14.1-6.6c0.3,0.4,0.5,0.8,0.6,1.3
			c0.1,0.3,0.2,0.6,0.2,1c0.5,2.9-0.8,5.9-0.8,5.9s0.7-0.3,1.5-1.2c0.1,1.2,0.2,2.4,0.2,3.8c0,0.2,0,0.4,0,0.5c0,0,0,0,0,0
			c0,0.1,0,0.3,0,0.4c0,0.5,0,1-0.1,1.5c-0.3,6-1.7,10.5-3.6,13.8c0,0,0,0,0,0c-0.2,0.4-0.5,0.8-0.7,1.2c-2.7,4.5-7.2,7.1-12.7,6.8
			l-0.5,2.8c6.2-0.3,14.5,6.2,20.8,12.1c1.7-2.3,5.9-9.8,0.3-22.3c-7.1-15.8,11.9-37.9-19.8-43.4c0,0-1.4-0.4-3.5-0.6
			c-1.2-12.3-15.8-11.7-19.8-3.1c-2.2,4.9,0,8,2.4,9.7c-1.9,2.1-3.6,4.9-5,8.5c-8,20.2-19.2,7-22.6,23.1c-3.4,16-16.3,9.3-14.1,23.6
			c-0.1-1.3-0.2-6.7,6.7-9.6c1.8-0.8,3.3-1.4,4.5-2c-3.7,2.8-8.1,7.5-8.1,14.6c7.4,0,12-0.6,19.2,6.5c1,1,2.5,2.1,4.3,3.1
			c1.9-5.8,3.6-10,5.1-12.9C110,125.8,111,124.1,112.5,122.7z"/>
		<path class="st5" d="M190,188.1c-0.1-0.3-0.1-0.7-0.2-1.1c-1.3,0.4-2.7,0.7-4.1,1.1H190z"/>
		<path class="st5" d="M160.1,151.2c1.2,3.2,1.8,5.8,1.8,7.1c0,6-1.3,10.3-3,13.8c0,0,0,0,0,0L192,176l0.7-3.4l-1.4-0.4
			c-9.1-10.9-17.1-20.4-24.2-28.2C165.7,145.7,163.4,148.4,160.1,151.2z"/>
		<path class="st1" d="M138.7,121.4c2,3.6,9.8,18.1,12,26.8c1.8,7.1-0.9,8.8-4,8.7c3.7,4.7,7.7,9.8,12.3,15.2c1.7-3.5,3-7.8,3-13.8
			c0-1.3-0.6-3.9-1.8-7.1c3.2-2.8,5.6-5.5,7-7.3c1-1.2,1.5-2,1.5-2s-3.8-4.5-9-9.5c-6.3-5.9-14.6-12.4-20.8-12.1L138.7,121.4z"/>
		<path class="st6" d="M96.1,242.6c-3.4-5.7-4.2-14.3-1.3-28.4c-1.5-0.1-2.9-0.3-4.1-0.5c-0.2-5.5,0.2-11.3,1-17.3H79.6
			c-1.9,14.9-8.7,21.8-8.7,42.8c0,15.7,13.7,20.2,13.7,20.2h42.2C109,256.6,100.1,251.7,96.1,242.6z"/>
		<path class="st6" d="M98.5,161.9c0.1-0.4,0.2-0.7,0.2-1.1H66.4c0,0,13.7,14.4,13.7,27.4c0,1.2,0,2.3-0.1,3.3h12.4
			C94,181.6,96.4,171.3,98.5,161.9z"/>
		<polygon class="st7" points="128.7,283 125.3,264.1 122.8,264.1 127.4,289.9 116.1,353.4 118.5,353.4 128.7,296.8 138.8,353.4 
			141.2,353.4 129.9,289.9 134.5,264.1 132,264.1 		"/>
		<polygon class="st7" points="81.1,283.8 77.9,301.7 68.7,353.4 71.2,353.4 79,309.7 83.4,284.9 87.1,264.1 84.7,264.1 		"/>
		<path class="st7" d="M186.1,353.4h2.5l-8.2-45.8c-0.7,0.9-1.4,1.7-2,2.5L186.1,353.4z"/>
		<path class="st7" d="M172.5,263.3c-0.3,0-0.7,0-1,0v0.9h-1.3l3.1,17.1l1.8-3.7L172.5,263.3z"/>
		<path class="st4" d="M171.5,263.2c-19.1-0.8-33.6-1.9-44.7-3.7H84.6v4.6h0.1h2.5h35.7h2.5h6.8h2.5h35.7h1.3V263.2z"/>
		<path class="st8" d="M211.4,252.6c1.2,2.2,0.5,6-1.5,10.7c2.8,0.1,5.7,0.3,8.8,0.4c-6.8,17.4-1.3,46.7,2.3,61.6
			c6.3,0.1,11.1,0.9,14,1.5c1.9-15.3,5.1-44.4,4.2-61.8c-0.3-5.6-1-9.9-2.2-12.3c-1.2-3.5-2.9-6.7-5-9.6
			c-15.7-21.8-53.3-25.3-77.3-25.1c0.2,1.1,0.3,2.1,0.4,3.2C179.9,224.2,204.4,232.6,211.4,252.6z"/>
		<path class="st9" d="M216.9,325.3c1.4,19.6,4.5,28.1,4.5,28.1h34.8c-0.3-3-2.6-4.9-5.4-5.6c-2.8-0.7-5.8-0.6-9.5-5.4
			c-4.6-5.9-3.4-11.7-3-14.8c0,0-1.1-0.4-3.2-0.9c-2.9-0.7-7.7-1.4-14-1.5C219.6,325.2,218.3,325.2,216.9,325.3z"/>
		<path class="st10" d="M94.8,214.2c-2.9,14.1-2,22.7,1.3,28.4c4,9.1,12.8,14,30.7,16.9c11.1,1.8,25.7,2.9,44.7,3.7c0.3,0,0.7,0,1,0
			c3,0.1,6.2,0.3,9.4,0.4l-6.9,13.9l-1.8,3.7L160,308c5.3,5,8.6,9.5,10.3,12.2c2.4-2.9,5.2-6.3,8.1-10c0.7-0.8,1.3-1.7,2-2.5
			c11.3-14.4,24.5-32.4,29.5-44.3c2-4.7,2.7-8.5,1.5-10.7c-7-20-31.5-28.4-56.5-31.5c-0.1-1-0.2-2.1-0.4-3.2
			c-0.3-1.9-0.6-3.8-1.1-5.7C130.2,216,107,215.4,94.8,214.2z"/>
		<path class="st9" d="M160,308c-0.6-0.5-1.1-1.1-1.7-1.6c-12.6,15.1-16.3,23.2-16.3,23.2s24.6,23.8,24.6,23.8c0,0,1.2-2.4,1.3-2.6
			c0.8-3.7-1.8-5.5-3-7.8c-3.1-6-0.1-14.2,4.8-18.2l2.2-1.8c0,0-0.5-1-1.6-2.7C168.5,317.4,165.2,313,160,308z"/>
		<path class="st1" d="M90.8,213.7c1.2,0.2,2.5,0.3,4.1,0.5c12.2,1.2,35.4,1.8,58.6-2c0.5-0.1,1.1-0.2,1.6-0.3
			c-0.5-1.9-1.1-3.8-1.8-5.7c-1.5-3.8-2.3-7-2.7-9.9H91.7C91,202.4,90.5,208.3,90.8,213.7z"/>
		<path class="st1" d="M92.4,191.5h57.8c0-0.2,0-0.4,0-0.6c-9.6-3.5-22.8-16.6-31.7-30.6c-1.3,0.2-2.7,0.4-4,0.5
			c0,0-10.6-20.2-5.3-33.1c-1.5,2.9-3.3,7.1-5.1,12.9c-1.7,5.3-3.5,11.9-5.3,20.2c-0.1,0.4-0.2,0.7-0.2,1.1
			C96.4,171.3,94,181.6,92.4,191.5z"/>
		<path class="st5" d="M141.2,149.9c1.7,2.2,3.5,4.6,5.5,7c3.1,0.1,5.8-1.6,4-8.7c-2.2-8.7-10-23.3-12-26.8l0.2-0.9l0.5-2.8
			c-1.6-0.1-3.3-0.4-5.1-1c2.7,4.9,4.2,9.9,1.5,17.6c4.5,7.1,7.4,14,7.4,14S142.5,148.9,141.2,149.9z"/>
		<path class="st11" d="M152.1,110.9c0.2-0.4,0.5-0.8,0.7-1.2c-2.5-1.5-4.3-4.2-4.3-7.3c0-2.8,1.3-5.2,3.4-6.7c-0.6-0.2-1-0.6-1-1.3
			c0-0.7,0.6-1.3,1.3-1.3c0.7,0,1.3,0.6,1.3,1.3c0,0.1,0,0.2-0.1,0.3c0.9-0.4,1.9-0.7,2.9-0.7c0-0.2,0-0.4,0-0.5
			c0-1.3-0.1-2.6-0.2-3.8c-0.8,0.9-1.5,1.2-1.5,1.2s1.3-3,0.8-5.9c-0.1-0.3-0.2-0.7-0.2-1c-0.1-0.4-0.3-0.9-0.6-1.3
			c-1.3,8-14.1,6.6-14.1,6.6s5.1-3.7,3.6-10c-4.7,9-12.5,9.9-12.5,9.9s6.2-4.5,7.6-11.4c-3.1,7.3-7.8,10.4-12,11.6
			c-0.6,1.2-1.1,2.8-1.3,4.8c0.8-0.2,1.5-0.3,2.4-0.3c4.7,0,8.4,3.8,8.4,8.4c0,3.9-2.6,7.1-6.2,8.1c1.2,2.2,2.5,4.1,3.6,6.1
			c1.8,0.6,3.5,0.9,5.1,1C144.8,118,149.4,115.5,152.1,110.9z M144.2,93.5c0,0,1.3,3.3,2.8,7.3c1.6,4.1-2.8,3.3-2.8,3.3V93.5z
			 M136.2,95.7c-0.7,0-1.3-0.6-1.3-1.3c0-0.7,0.6-1.3,1.3-1.3c0.7,0,1.3,0.6,1.3,1.3C137.5,95.2,136.9,95.7,136.2,95.7z
			 M143.8,106.8c1-2.1,3.5,0,3.5,0s-0.8,2.3-3.6,2.6c-3.6,0.3-4.4-2.6-4.4-2.6S142.8,104.9,143.8,106.8z"/>
		<path class="st12" d="M136.9,102.4c0-4.7-3.8-8.4-8.4-8.4c-0.8,0-1.6,0.1-2.4,0.3c-0.2,2.5,0.1,5.6,1.4,9.4c0.9,2.5,2,4.7,3.2,6.8
			C134.2,109.5,136.9,106.3,136.9,102.4z"/>
		<path class="st12" d="M152.2,95.7c-0.1,0-0.2,0-0.3-0.1c-2.1,1.5-3.4,4-3.4,6.7c0,3.1,1.7,5.8,4.3,7.3c0,0,0,0,0,0
			c1.9-3.3,3.3-7.8,3.6-13.8c0-0.5,0-1,0.1-1.5c0-0.1,0-0.3,0-0.4c0,0,0,0,0,0c-1,0.1-2,0.3-2.9,0.7
			C153.4,95.3,152.9,95.7,152.2,95.7z"/>
		<path class="st13" d="M143.7,109.4c2.8-0.3,3.6-2.6,3.6-2.6s-2.5-2.1-3.5,0c-1-2-4.5,0-4.5,0S140.1,109.7,143.7,109.4z"/>
		<path class="st4" d="M136.2,93.1c-0.7,0-1.3,0.6-1.3,1.3c0,0.7,0.6,1.3,1.3,1.3c0.7,0,1.3-0.6,1.3-1.3
			C137.5,93.7,136.9,93.1,136.2,93.1z"/>
		<path class="st4" d="M153.5,94.7c0-0.1,0.1-0.2,0.1-0.3c0-0.7-0.6-1.3-1.3-1.3c-0.7,0-1.3,0.6-1.3,1.3c0,0.6,0.4,1.1,1,1.3
			c0.1,0,0.2,0.1,0.3,0.1C152.9,95.7,153.4,95.3,153.5,94.7z"/>
		<path class="st12" d="M147,100.8c-1.6-4.1-2.8-7.3-2.8-7.3v10.7C144.2,104.1,148.6,104.8,147,100.8z"/>
		<path class="st11" d="M167.6,189.8c0-0.9,0.8-1.7,1.7-1.7h16.4c1.4-0.4,2.8-0.7,4.1-1.1c0-0.5,0-1,0.1-1.5l2-9.5l-33.1-3.9
			c0,0,0,0,0,0c-4.6-5.5-8.6-10.5-12.3-15.2c-1.9-2.5-3.7-4.8-5.5-7c-3.7,2.9-12.2,8.6-22.6,10.4c8.9,14,22.1,27.1,31.7,30.6
			c0.7,0.3,1.4,0.5,2,0.6h15.8c0.2,0,0.5-0.1,0.7-0.1C168.1,191.2,167.6,190.6,167.6,189.8z"/>
		<path class="st1" d="M143.2,148.3c0,0-3-7-7.4-14v0c-5.5-8.4-14-16.3-21.4-13.1c-0.6,0.4-1.2,0.9-1.8,1.5c-1.5,1.5-2.6,3.2-3.3,5
			c-5.3,13,5.3,33.1,5.3,33.1c1.4-0.1,2.7-0.3,4-0.5c10.4-1.8,18.9-7.6,22.6-10.4C142.5,148.9,143.2,148.3,143.2,148.3z"/>
		<rect x="24.1" y="196.5" class="st7" width="3.9" height="156.9"/>
		<path class="st7" d="M344.6,335.2v18.2h3.9v-12.5c-0.5-0.6-0.9-1.1-1.4-1.7C346.2,337.9,345.4,336.5,344.6,335.2z"/>
		<path class="st7" d="M348.5,296.4v-2.2c-2-5.1-3.3-11.7-0.6-18.8c0.3-0.7,0.5-1.4,0.6-2v-9.6c-0.8-2.5-2.3-4.8-3.9-6.9V279v17.3
			H348.5z"/>
		<path class="st4" d="M322.8,191.5v0.3h-17.6v-0.3h-29h-1h-80.6h-25.4h-1.3h-15.8h-2.1H92.4H80H24.1v1.7v3.3h3.9h51.6h12.2h58.8
			h186.8c-1.1-1.6-2.1-3.2-3.1-4.9H322.8z"/>
		<path class="st14" d="M190,185.5c-0.1,0.5-0.1,1-0.1,1.5c0,0.4,0.1,0.7,0.2,1.1h-4.3h-16.4c-0.9,0-1.7,0.8-1.7,1.7
			c0,0.8,0.5,1.4,1.2,1.6c0.2,0.1,0.3,0.1,0.5,0.1h25.4h80.6h1c3.3,0,6.6-2.7,7.3-6l9.3-43.3c0.7-3.3-1.4-6-4.7-6h-81.5
			c-3.3,0-6.6,2.7-7.3,6l-6.5,30.4L192,176L190,185.5z M243.9,156.4c3,0,5.4-2.4,5.4-5.4c0-2.1-1.2-3.9-2.9-4.8
			c3.6,0.2,6.4,3.2,6.4,6.8c0,3.8-3.1,6.8-6.8,6.8c-3.6,0-6.5-2.7-6.8-6.2C240.2,155.3,241.9,156.4,243.9,156.4z"/>
		<path class="st15" d="M246.1,159.9c3.8,0,6.8-3.1,6.8-6.8c0-3.6-2.8-6.6-6.4-6.8c1.7,0.9,2.9,2.7,2.9,4.8c0,3-2.4,5.4-5.4,5.4
			c-2,0-3.7-1.1-4.7-2.7C239.6,157.2,242.5,159.9,246.1,159.9z"/>
		<path class="st16" d="M324.6,150.4c0-5.8-4.8-10.6-10.6-10.6c-5.8,0-10.6,4.8-10.6,10.6v11.3h21.2V150.4z"/>
		<path class="st10" d="M329.8,164.1h-31.4c0,1.5,0.1,3.5,0.3,5.7h30.9C329.7,167.6,329.8,165.6,329.8,164.1z"/>
		<path class="st10" d="M329.1,172.3h-30.2c0.3,1.9,0.7,3.8,1.4,5.7h27.5C328.4,176.2,328.8,174.2,329.1,172.3z"/>
		<path class="st10" d="M322.8,186.2c1.7-1.5,3-3.5,4-5.7h-25.5c1,2.2,2.3,4.1,4,5.7v0.1L322.8,186.2L322.8,186.2z"/>
		<polygon class="st10" points="322.8,191.9 322.8,191.5 322.8,188.8 305.2,188.8 305.2,191.5 305.2,191.9 		"/>
		<path class="st1" d="M329.7,161.6h-5h-21.2h-5c0,0-0.1,1-0.1,2.5h31.4C329.7,162.6,329.7,161.6,329.7,161.6z"/>
		<path class="st1" d="M329.5,169.8h-30.9c0.1,0.8,0.2,1.6,0.3,2.5h30.2C329.3,171.5,329.4,170.6,329.5,169.8z"/>
		<path class="st1" d="M327.8,178.1h-27.5c0.3,0.8,0.6,1.7,1,2.5h25.5C327.1,179.7,327.5,178.9,327.8,178.1z"/>
		<rect x="305.2" y="186.3" class="st1" width="17.6" height="2.5"/>
		<path class="st7" d="M252.3,84.6c-9.8,2.1-16,11.8-13.9,21.6c1.1,5,4.2,9.1,8.2,11.6l0.3,9.9l7-7.4c2,0.2,4,0.2,6.1-0.3
			c9.8-2.1,16-11.8,13.9-21.6C271.8,88.7,262.1,82.5,252.3,84.6z M250.9,99.7l-4.2,2.8v0.1l4.2,2.8v1.3l-5.3-3.6v-1l5.3-3.6V99.7z
			 M262.3,105.3l4.2-2.8v-0.1l-4.2-2.8v-1.3l5.3,3.6v1l-5.3,3.6V105.3z M260.7,97.2l-7.1,12.3h-1.2l7.1-12.3H260.7z"/>
		<polygon class="st15" points="245.6,103 250.9,106.6 250.9,105.3 246.7,102.6 246.7,102.5 250.9,99.7 250.9,98.5 245.6,102 		"/>
		<polygon class="st15" points="253.6,109.5 260.7,97.2 259.5,97.2 252.4,109.5 		"/>
		<polygon class="st15" points="267.6,102 262.3,98.5 262.3,99.7 266.5,102.5 266.5,102.6 262.3,105.3 262.3,106.6 267.6,103 		"/>
		<path class="st17" d="M395.6,191.3c-7.7-3.6-16.6-3.2-22.8,7.6c-1.3,12.8-5.3,24.1-0.4,32.2c8,13.4,12,33.5,5.6,49.5
			c-2.7,6.8-3.7,12-3.9,15.8h10c22.6-33.1-3.9-39.4,11.5-58.2C412,218.1,406.4,196.4,395.6,191.3z"/>
		<path class="st16" d="M348.5,273.4c-0.2,0.6-0.4,1.3-0.6,2c-2.6,7.1-1.4,13.7,0.6,18.8c0.3,0.8,0.6,1.5,1,2.2H374
			c0.2-3.7,1.2-8.9,3.9-15.8c6.4-16,2.4-36.1-5.6-49.5c-4.9-8.2-0.8-19.5,0.4-32.2c0.8-8.1,0.5-16.9-4.1-25.8
			c-11.6-22.9-39.3-13.2-39.3,3c0,6,2.2,11,4.9,15.5c1,1.7,2.1,3.3,3.1,4.9c3.7,5.5,7,10.5,6.1,16.1c-2,11.4-8.8,20.3-6,31.9
			c1.2,5,4.4,8.7,7.2,12.4c1.6,2.2,3,4.4,3.9,6.9C349.4,266.5,349.5,269.6,348.5,273.4z"/>
		<path class="st6" d="M349.4,296.4h-1h-3.9h-2.8h-4c0,0-0.2,2.8-0.1,7.1h60c0.1-4.3-0.1-7.1-0.1-7.1H384h-10H349.4z"/>
		<path class="st6" d="M338,310.6c0.2,2.2,0.5,4.6,0.9,7.1c0.4,2.4,0.9,4.8,1.6,7.2c0.7,2.4,1.5,4.8,2.5,7.1c0.5,1.1,1,2.2,1.6,3.2
			c0.8,1.4,1.6,2.7,2.5,3.9c0.4,0.6,0.9,1.2,1.4,1.7c1.5,1.8,3.3,3.4,5.3,4.7v0.6h27.7v-0.6c2.6-1.7,4.9-3.9,6.7-6.4
			c1.6-2.2,3-4.6,4.1-7.2c1-2.3,1.8-4.7,2.5-7.1c0.7-2.4,1.2-4.8,1.6-7.2c0.4-2.4,0.7-4.8,0.9-7.1H338z"/>
		<path class="st10" d="M337.6,303.5c0,2.1,0.2,4.5,0.4,7.2h59.3c0.2-2.6,0.3-5.1,0.4-7.2H337.6z"/>
		<rect x="353.8" y="346.2" class="st10" width="27.7" height="7.2"/>
	</g>
</g>
<g id="DESIGNED_BY_FREEPIK">
</g>
</svg>
