<?xml version="1.0" encoding="utf-8"?>
<!-- Generator: Adobe Illustrator 25.3.1, SVG Export Plug-In . SVG Version: 6.00 Build 0)  -->
<svg version="1.1" id="Camada_1" xmlns="http://www.w3.org/2000/svg" xmlns:xlink="http://www.w3.org/1999/xlink" x="0px" y="0px"
	 viewBox="0 0 168.9 190.6" style="enable-background:new 0 0 168.9 190.6;" xml:space="preserve">
<style type="text/css">
	.st0{fill:#F94CB3;}
	.st1{fill:#FFFFFF;}
</style>
<g>
	<path class="st0" d="M161.7,42.3L91.7,1.9c-4.5-2.6-10-2.6-14.5,0L7.3,42.3C2.8,44.9,0,49.7,0,54.9l0,80.8c0,5.2,2.8,10,7.3,12.6
		l69.9,40.4c4.5,2.6,10,2.6,14.5,0l69.9-40.4c4.5-2.6,7.3-7.4,7.3-12.6V54.9C168.9,49.7,166.2,44.9,161.7,42.3z"/>
	<g>
		<circle class="st1" cx="84.5" cy="95.2" r="9.7"/>
		<path class="st1" d="M119.4,78.3c-1.1-0.4-2.3-0.8-3.5-1.1c0.2-0.8,0.4-1.6,0.6-2.4c2.7-13,0.8-23.2-5-26.5
			c-5.5-3.2-14.6-0.1-24.2,8.3c-0.9,0.8-1.8,1.6-2.7,2.5c-0.6-0.6-1.2-1.1-1.8-1.7c-10-8.8-19.7-12.3-25.5-8.9
			c-5.5,3.2-7.4,12.6-4.9,25.1c0.2,1.2,0.5,2.4,0.8,3.6c-1.4,0.4-2.7,0.8-4,1.3c-11.8,4.1-18.8,10.4-18.8,16.8
			c0,6.6,7.6,13.3,19.8,17.5c0.9,0.3,1.9,0.6,2.9,0.9c-0.3,1.3-0.6,2.6-0.9,3.9c-2.3,12.2-0.4,21.5,5.1,24.6
			c1.5,0.9,3.3,1.3,5.2,1.3c5.6,0,12.7-3.4,19.9-9.7c0.7-0.7,1.5-1.4,2.3-2.1c1,0.9,2,1.8,2.9,2.7c6.9,6,13.6,9.1,18.8,9.1
			c1.9,0,3.6-0.4,5.1-1.3c5.7-3.3,7.8-13.3,5.2-25.9c-0.2-0.9-0.4-1.9-0.7-2.9c0.7-0.2,1.4-0.4,2-0.6c12.6-4.2,20.5-10.9,20.5-17.6
			C138.6,88.8,131.4,82.5,119.4,78.3z M109.1,52.4c3.1,1.8,5.3,9.3,2.8,21.6c-0.1,0.7-0.3,1.4-0.5,2.2c-4.5-1-9.4-1.8-14.5-2.3
			c-3-4.2-6.1-8.1-9.1-11.4c0.8-0.8,1.7-1.6,2.5-2.3C99.1,52.4,106.2,50.7,109.1,52.4z M99.6,104c-1.7,3-3.4,5.7-5.2,8.4
			c-3.2,0.2-6.5,0.4-9.9,0.4c-3.4,0-6.7-0.1-9.8-0.3c-1.9-2.7-3.6-5.5-5.3-8.4c-1.7-2.9-3.2-5.8-4.6-8.7c1.4-2.9,2.9-5.9,4.6-8.7
			c1.7-2.9,3.4-5.7,5.3-8.3c3.2-0.2,6.5-0.4,9.9-0.4c3.3,0,6.6,0.1,9.9,0.4c1.8,2.6,3.5,5.4,5.2,8.3c1.7,2.9,3.3,5.8,4.7,8.7
			C102.8,98.1,101.3,101.1,99.6,104z M106.7,100.6c1.5,3.3,2.7,6.5,3.6,9.5c-3.1,0.7-6.5,1.3-10.1,1.7c1.1-1.8,2.2-3.6,3.3-5.5
			C104.7,104.4,105.7,102.5,106.7,100.6z M84.7,125c-2.2-2.4-4.4-5-6.5-7.8c2.1,0.1,4.2,0.1,6.3,0.1c2.2,0,4.4-0.1,6.5-0.2
			C88.9,120.1,86.8,122.7,84.7,125z M68.8,111.9c-3.6-0.4-6.9-0.9-10-1.6c1-3.1,2.1-6.3,3.5-9.6c1,1.9,2,3.7,3,5.6
			C66.5,108.3,67.6,110.1,68.8,111.9z M62.3,89.9c-1.3-3.2-2.5-6.3-3.4-9.3c3.1-0.7,6.4-1.2,9.8-1.7c-1.1,1.8-2.3,3.6-3.3,5.4l0,0
			C64.3,86.1,63.3,88,62.3,89.9z M84.5,65.7c2.1,2.3,4.3,4.9,6.4,7.7c-2.1-0.1-4.3-0.2-6.4-0.2h0c-2.1,0-4.3,0.1-6.4,0.2
			C80.2,70.6,82.4,68,84.5,65.7z M103.6,84.2c-1.1-1.9-2.2-3.6-3.3-5.4c3.4,0.4,6.8,1,9.9,1.7c-0.9,3-2.1,6.1-3.5,9.3
			C105.7,88,104.7,86.1,103.6,84.2z M56.9,72.7c-2.3-11.5-0.2-18.5,2.7-20.2c3.1-1.8,10.7,0.1,20.1,8.4c0.5,0.5,1.1,1,1.6,1.5
			c-3.1,3.4-6.2,7.2-9.2,11.4C67,74.3,62.1,75,57.6,76C57.3,74.9,57.1,73.8,56.9,72.7z M51.6,108.3C40.2,104.4,35,98.8,35,95.2
			c0-3.4,4.8-8.6,15.7-12.4c1.2-0.4,2.4-0.8,3.7-1.2c1.4,4.4,3.2,9,5.3,13.7c-2.2,4.7-4,9.4-5.4,13.9
			C53.4,108.9,52.5,108.6,51.6,108.3z M79.4,130.3c-9.1,8-16.6,9.7-19.7,7.9c-3-1.7-5-8.5-2.9-19.8c0.2-1.2,0.5-2.4,0.8-3.6
			c4.4,1,9.3,1.7,14.6,2.1c3,4.2,6.1,8.1,9.3,11.5C80.7,129,80.1,129.7,79.4,130.3z M112.2,117.2c2.4,11.9,0.1,19.2-3,21
			c-3,1.7-9.9,0.1-18.6-7.4c-0.9-0.8-1.8-1.6-2.7-2.5c3-3.3,6.1-7.2,9.1-11.5c5.2-0.5,10.2-1.2,14.7-2.3
			C111.8,115.4,112.1,116.3,112.2,117.2z M116.7,108.4c-0.6,0.2-1.2,0.4-1.8,0.5c-1.4-4.3-3.2-8.9-5.5-13.7
			c2.2-4.7,3.9-9.2,5.3-13.5c1.1,0.3,2.2,0.7,3.2,1c11.1,3.8,16.1,9.1,16.1,12.5C134,98.8,128.6,104.4,116.7,108.4z"/>
	</g>
</g>
</svg>
